# xmcd
# 
# Track frame offsets:
#     150
#     17363
#     30443
#     49843
#     72624
#     86346
#     98013
#     112262
#     121983
#     138684
#     147388
#     166633
#     176525
# 
# Disc length: 2541
# 
# Revision: 2
# Processed by: cddbd v1.5.2PL0 Copyright (c) Steve Scherf et al.
# Submitted via: fre:ac v1.0.31
# 
DISCID=ac09eb0d
DTITLE=The Mescaleros - Family Business
DYEAR=1998
DGENRE=Blues
TTITLE0=Going Back Home
TTITLE1=Loving You
TTITLE2=Lost The Will To Live
TTITLE3=No Peace Of Mind
TTITLE4=Working Out Fine
TTITLE5=I´m Crying
TTITLE6=Turning Back The Clock
TTITLE7=She´s So Fine
TTITLE8=Prime Time
TTITLE9=Sonny
TTITLE10=Someday - Maybe
TTITLE11=The Mescaleros Stomp
TTITLE12=New Orleans
EXTD=
EXTT0=
EXTT1=
EXTT2=
EXTT3=
EXTT4=
EXTT5=
EXTT6=
EXTT7=
EXTT8=
EXTT9=
EXTT10=
EXTT11=
EXTT12=
PLAYORDER=
